<svg fill="#000000" xmlns="http://www.w3.org/2000/svg" viewBox="0 0 50 50" width="500px" height="500px"><path d="M5.5,36L5.5,36C4.125,36,3,34.95,3,33.667V18.333C3,17.05,4.125,16,5.5,16h0C6.875,16,8,17.05,8,18.333v15.333C8,34.95,6.875,36,5.5,36z"/><path d="M5.5 37C3.57 37 2 35.505 2 33.667V18.333C2 16.495 3.57 15 5.5 15S9 16.495 9 18.333v15.334C9 35.505 7.43 37 5.5 37zM5.5 17C4.673 17 4 17.598 4 18.333v15.334C4 34.402 4.673 35 5.5 35S7 34.402 7 33.667V18.333C7 17.598 6.327 17 5.5 17zM15.5 31L15.5 31c-1.375 0-2.5-1.05-2.5-2.333V13.333C13 12.05 14.125 11 15.5 11h0c1.375 0 2.5 1.05 2.5 2.333v15.333C18 29.95 16.875 31 15.5 31z"/><path d="M15.5 32c-1.93 0-3.5-1.495-3.5-3.333V13.333C12 11.495 13.57 10 15.5 10s3.5 1.495 3.5 3.333v15.334C19 30.505 17.43 32 15.5 32zM15.5 12c-.827 0-1.5.598-1.5 1.333v15.334C14 29.402 14.673 30 15.5 30s1.5-.598 1.5-1.333V13.333C17 12.598 16.327 12 15.5 12zM25.5 34L25.5 34c-1.375 0-2.5-1.05-2.5-2.333V16.333C23 15.05 24.125 14 25.5 14h0c1.375 0 2.5 1.05 2.5 2.333v15.333C28 32.95 26.875 34 25.5 34z"/><path d="M25.5,35c-1.93,0-3.5-1.495-3.5-3.333V16.333C22,14.495,23.57,13,25.5,13s3.5,1.495,3.5,3.333v15.334C29,33.505,27.43,35,25.5,35z M25.5,15c-0.827,0-1.5,0.598-1.5,1.333v15.334C24,32.402,24.673,33,25.5,33s1.5-0.598,1.5-1.333V16.333C27,15.598,26.327,15,25.5,15z"/><g><path d="M35.5,41L35.5,41c-1.375,0-2.5-1.05-2.5-2.333V23.333C33,22.05,34.125,21,35.5,21h0c1.375,0,2.5,1.05,2.5,2.333v15.333C38,39.95,36.875,41,35.5,41z"/><path d="M35.5,42c-1.93,0-3.5-1.495-3.5-3.333V23.333C32,21.495,33.57,20,35.5,20s3.5,1.495,3.5,3.333v15.334C39,40.505,37.43,42,35.5,42z M35.5,22c-0.827,0-1.5,0.598-1.5,1.333v15.334C34,39.402,34.673,40,35.5,40s1.5-0.598,1.5-1.333V23.333C37,22.598,36.327,22,35.5,22z"/></g><g><path d="M45.5,37L45.5,37c-1.375,0-2.5-1.05-2.5-2.333V19.333C43,18.05,44.125,17,45.5,17h0c1.375,0,2.5,1.05,2.5,2.333v15.333C48,35.95,46.875,37,45.5,37z"/><path d="M45.5,38c-1.93,0-3.5-1.495-3.5-3.333V19.333C42,17.495,43.57,16,45.5,16s3.5,1.495,3.5,3.333v15.334C49,36.505,47.43,38,45.5,38z M45.5,18c-0.827,0-1.5,0.598-1.5,1.333v15.334C44,35.402,44.673,36,45.5,36s1.5-0.598,1.5-1.333V19.333C47,18.598,46.327,18,45.5,18z"/></g></svg>